<?xml version="1.0" encoding="UTF-8"?>
<!DOCTYPE svg PUBLIC "-//W3C//DTD SVG 1.1//EN" "http://www.w3.org/Graphics/SVG/1.1/DTD/svg11.dtd">
<!-- Creator: CorelDRAW 2021.5 -->
<svg xmlns="http://www.w3.org/2000/svg" xml:space="preserve" width="1.9685in" height="1.9685in" version="1.1"
     style="shape-rendering:geometricPrecision; text-rendering:geometricPrecision; image-rendering:optimizeQuality; fill-rule:evenodd; clip-rule:evenodd"
     viewBox="0 0 1968.5 1968.5"
     xmlns:xlink="http://www.w3.org/1999/xlink"
     xmlns:xodm="http://www.corel.com/coreldraw/odm/2003">
 <defs>
  <style type="text/css">
   <![CDATA[
    .str0 {stroke:#373435;stroke-width:6.94;stroke-miterlimit:2.61313}
    .fil1 {fill:#2F2F2F}
    .fil0 {fill:#303030}
   ]]>
  </style>
 </defs>
    <g id="Camada_x0020_1">
  <metadata id="CorelCorpID_0Corel-Layer"/>
        <g id="_1875217391456">
   <path class="fil0 str0"
         d="M730.51 954.08l500.2 -3.69c23.82,91.89 -1.63,171.4 -45.16,223.58 -47.56,57 -104.85,97.97 -199.97,99.74 -163.03,3.02 -298.03,-144 -255.07,-319.63zm116.17 -461.63c13.29,29.85 2.68,18.39 8.89,38.72 1.18,3.87 2.22,7.76 3.57,11.79l9.72 25.16c1.39,3.64 3.07,9.04 5.61,13.04 36.56,-46.57 20.75,-94.2 25.36,-152.34l160.81 -4.75c7.1,62.37 -10.55,120.46 22.16,155.89 39.69,-18.16 21.07,-31.19 27.24,-89.74 188.52,27.09 177.41,213.05 187.11,288.66 13.25,103.34 45.87,-2.83 54.67,111.57 -54.13,37.82 -682.41,18.85 -741.91,17.04 3.1,-124.44 22.74,-30.86 49.91,-105.36 9.09,-24.93 6.18,-103.7 19.76,-149.2 23.83,-79.85 83.77,-148.1 167.11,-160.46zm-277.84 324l1.61 126.97 108.97 8.48c9.9,165.52 48.74,357.48 292,363.89 116.3,3.07 183.32,-46.38 236.87,-105.63 71.38,-78.98 72.83,-139.43 73.3,-259.04l108.12 -2.05c12.47,-248.17 -35.21,-56.38 -53.31,-224.7 -6.52,-60.64 -15.57,-110.06 -42.37,-155.94 -57.91,-99.15 -152.18,-112.25 -167.97,-124.59 -34.55,-26.99 -8.56,-15.32 -33.37,-61.43 -322.36,-1.21 -211.58,5.94 -241.28,43.62 -14.68,18.63 12.1,6.72 -57.11,36.56 -97.33,41.98 -150.52,116.74 -165.12,224.02 -14.57,107.07 20.8,93.65 -60.33,129.82z"/>
            <path class="fil1 str0"
                  d="M582.79 1587.6c67.27,-28.26 12.22,-106.72 130.05,-136.71l521.07 -2.95c105.3,20.11 92.23,108.88 140.54,141.25 0.47,-0.7 57.01,5.28 -12.15,-102.65 -72.88,-113.74 -207.46,-83.29 -376.74,-83.29 -136.44,0 -356.89,-36.52 -406.35,123.76l3.57 60.59z"/>
  </g>
 </g>
</svg>
