<?xml version="1.0" encoding="UTF-8"?>
<!DOCTYPE svg PUBLIC "-//W3C//DTD SVG 1.1//EN" "http://www.w3.org/Graphics/SVG/1.1/DTD/svg11.dtd">
<!-- Creator: CorelDRAW 2021 (64-Bit Evaluation Version) -->
<svg xmlns="http://www.w3.org/2000/svg" xml:space="preserve" width="300mm" height="300mm" version="1.1"
     style="shape-rendering:geometricPrecision; text-rendering:geometricPrecision; image-rendering:optimizeQuality; fill-rule:evenodd; clip-rule:evenodd"
     viewBox="0 0 30000 30000"
     xmlns:xlink="http://www.w3.org/1999/xlink"
     xmlns:xodm="http://www.corel.com/coreldraw/odm/2003">
 <defs>
  <style type="text/css">
   <![CDATA[
    .fil1 {fill:#000D76}
    .fil2 {fill:#0062FF}
    .fil0 {fill:#F0F7FD}
   ]]>
  </style>
     <clipPath id="id0">
    <rect x="7950.9" y="6284.78" width="14534.44" height="15098.88"/>
   </clipPath>
 </defs>
    <g id="Layer_x0020_1">
  <metadata id="CorelCorpID_0Corel-Layer"/>
        <g style="clip-path:url(#id0)">
   <image id="logo_agendamentos2.0.png" x="7950.9" y="6284.78" width="14534.44" height="15098.88"
          xlink:href="logo_agendamentos3.0_Images\logo_agendamentos3.0_ImgID1.png"/>
  </g>
        <g id="_2903305851328">
   <path class="fil0"
         d="M17729.98 19185.18c-306.89,-193.73 -325.15,-102.88 -759.98,-50.03 -295.67,35.94 -605.2,32.43 -904.44,49.17 -162.84,526.44 -430.91,475.71 -1008.49,418.91 -865.16,-85.06 -2875.18,-544.54 -3032.63,-1452.96 -208.4,-1202.25 1005.31,-3088.83 2238.16,-3627.34 -131.03,-496.49 -614.78,-715.06 -838.3,-1388.68 -201.34,-606.81 -140.34,-1310.65 68.38,-1883.58 832.3,-2284.85 4164.79,-2500.76 5200.07,-41.03 727.19,1727.74 -542.3,2787.46 -752.86,3222.29 121.97,220.97 795.88,545.72 1318.92,1161.08 578.04,680.07 1048.83,1966.34 847.76,2751.06 -60.99,238.03 -72.12,158.41 -286.41,305.06 -492.9,337.3 -1463,1115.75 -2090.18,536.05zm-12168.78 -5769.36c568.18,415.95 778.92,421.4 817.86,1418.25 683.23,1260.81 -974.86,1122.37 -1323.42,1289.4 -482.14,231.05 -79.64,1386.53 -244.13,2028.95 -67.17,262.31 -153.21,363.27 -309.02,451.99 -31.62,317.51 -48.91,57.32 -112.49,327.54 -38.39,163.16 -21.27,345.07 -21.27,515.69 278.99,65 339.69,85.17 401.26,361.15 133.82,195.67 129.04,1429.73 194.65,1798.2 1061.31,269.51 1966.45,386.32 1896.4,1721.52 -81.45,1552.56 -1697.79,1369.93 -2051.58,1572.49 -216.15,3376.86 -120.81,3087.58 3123.07,2910.9 187.09,-3004.1 57.27,-6392.55 45.73,-9434.27 -6.01,-1582.78 -8.54,-3165.41 -15.8,-4748.2 -3.46,-754.05 13.26,-1536.18 -19.56,-2284.45 -34.24,-781.01 -220.09,-1735.19 733.12,-1593.87 427.14,253.13 276.25,1480.84 272.59,1936.27l-21.22 6957.75c-9.55,3040.25 -58.71,6135.56 42.71,9169.33 2139.02,138.69 3668.98,-387.03 3554.52,795.21 332.35,-155.47 1037.12,-66.88 1488.18,-66.88 114.06,-780.31 504.03,-754.3 1275.37,-713.37 1412.28,74.91 4835.1,50.38 6267.72,35.84 1729.69,-17.57 1763.38,327.7 1704.38,-2342.72 -30.75,-1391.01 -6.18,-2808.54 -6.14,-4202.37l-3.56 -14645.91c-1.18,-772.43 -110.47,-1336.28 712.86,-1389.8l-89.79 -122.5c-84.52,-201.87 -71.99,-1098.29 22.9,-1296.92l-568.72 -233.4c-67.95,-520.41 -29.18,-867.85 -25.48,-1374.14 4.21,-574.45 -172.23,-639.87 -339.52,-999.6 -2227.37,-113.65 -4762.8,3.77 -7024.52,8.36l-6804.52 31.37c-209.53,48.48 -6.24,-47.22 -137.25,64.3 -175.03,216.02 -57.95,5238.79 -53.29,6181.9 2.6,525.05 51.51,1107.81 -549.98,1064.13 -75.94,-5.51 -143.16,-23.65 -216.09,-55.01 -783.98,-337.02 152.07,-5766.15 -281.76,-7268.44 -547.65,-48.39 -2506.78,-204.03 -2828.76,135.96 -336.47,355.28 -200.03,2288.3 -152.55,2852.29 1081.61,163.96 2016.08,394.14 1993.2,1598.42 -10.07,530 -331.07,996.13 -601.96,1200.81 -398.06,300.74 -997.35,214.88 -1340.3,471.71 -116.13,423.02 -153.08,4880.18 -56.89,5355.39 277.74,173.15 583.99,209.46 653.05,516.73z"/>
            <path class="fil1"
                  d="M5787.85 5511.91c201.21,922.03 -266.67,825.54 -1084.61,839.45 -492.94,8.4 -1575.85,160.05 -1827.03,-262.35 -659.76,-1109.51 2601.12,-690.86 2911.64,-577.1zm-841.07 -5324.57l1896.37 0 14578.98 0 1699.21 0c443.46,75.71 802.84,292.64 1063.69,848.42 157.23,335.01 653.36,2613.13 -288.49,2829.28l-568.72 -233.4c-67.95,-520.41 -29.18,-867.85 -25.48,-1374.14 4.21,-574.45 -172.23,-639.87 -339.52,-999.6 -2227.37,-113.65 -4762.8,3.77 -7024.52,8.36l-6804.52 31.37c-209.53,48.48 -6.24,-47.22 -137.25,64.3 -175.03,216.02 -57.95,5238.79 -53.29,6181.9 2.6,525.05 51.51,1107.81 -549.98,1064.13 -75.94,-5.51 -143.16,-23.65 -216.09,-55.01 -783.98,-337.02 152.07,-5766.15 -281.76,-7268.44 -547.65,-48.39 -2506.78,-204.03 -2828.76,135.96 -336.47,355.28 -200.03,2288.3 -152.55,2852.29 1081.61,163.96 2016.08,394.14 1993.2,1598.42 -10.07,530 -331.07,996.13 -601.96,1200.81 -398.06,300.74 -997.35,214.88 -1340.3,471.71 -116.13,423.02 -153.08,4880.18 -56.89,5355.39 277.74,173.15 583.99,209.46 653.05,516.73 85.4,1138.67 -2074.98,469.55 -2518.78,708.01 -646.07,775.55 183.16,1006.1 1057.5,1023.81 2264.34,45.84 1219.31,-462.74 2279.14,-313.57 683.23,1260.81 -974.86,1122.37 -1323.42,1289.4 -482.14,231.05 -79.64,1386.53 -244.13,2028.95 -67.17,262.31 -153.21,363.27 -309.02,451.99l-468.14 -26.16c-77.08,-288.7 -331.18,-521.47 -259.37,-1125.48 135.54,-1139.96 -8.14,-657.12 -8.14,-1282.06 -993.19,-231.39 -1716.25,-260.05 -1925.21,-1289.42 -195.54,-963.17 469.6,-1720.78 1197.64,-1845.69 849.71,-145.76 804.24,152.83 795.02,-810.01l-67.45 -4748.75c-816.57,-18.2 -1177.07,-311.75 -1622.11,-584.79 -577.3,-354.19 -604.75,-1251.67 -306.89,-1745.08 786.01,-1302.12 1514.6,-733.28 1795.26,-1013.94 193.5,-193.51 -521.94,-3801.88 1313.68,-3945.69z"/>
            <path class="fil1"
                  d="M2846.23 23515.98c-91.61,-374.25 5.16,-456.01 149.8,-690.61 548.45,-156.69 2115.05,-124.56 2707.29,12.78 112.24,184.59 196.49,505.45 -14.52,735.1 -189.95,206.72 -600.22,175.05 -918.58,167.82 -612.52,-13.89 -1489.76,41.6 -1923.99,-225.09zm3194.41 5294.31l-1221.87 0c-113.86,-16.21 -216.24,-42.43 -299.92,-83.24 -1172.11,-571.76 -818.87,-2589.13 -818.87,-3795.57 -1350.76,0 -2116.74,-970.81 -2064.32,-1733.41 4.78,-69.33 176.72,-602.38 223.64,-709.14 167.44,-381 187.29,-125.86 512.59,-423.69 211.49,-193.63 -109.83,-78.3 659.61,-276.66 251.49,-64.83 470.44,-139.18 735.34,-200.91 140.1,-601.29 -92.53,-991.47 35.68,-1434.7 188.51,-651.65 701.75,-316.58 967.47,-344.18 133.82,195.67 129.04,1429.73 194.65,1798.2 1061.31,269.51 1966.45,386.32 1896.4,1721.52 -81.45,1552.56 -1697.79,1369.93 -2051.58,1572.49 -216.15,3376.86 -120.81,3087.58 3123.07,2910.9 187.09,-3004.1 57.27,-6392.55 45.73,-9434.27 -6.01,-1582.78 -8.54,-3165.41 -15.8,-4748.2 -3.46,-754.05 13.26,-1536.18 -19.56,-2284.45 -34.24,-781.01 -220.09,-1735.19 733.12,-1593.87 427.14,253.13 276.25,1480.84 272.59,1936.27l-21.22 6957.75c-9.55,3040.25 -58.71,6135.56 42.71,9169.33 2139.02,138.69 3668.98,-387.03 3554.52,795.21l-130.75 200.62c-2117.74,0 -4235.49,0 -6353.23,0z"/>
            <path class="fil1"
                  d="M14012.8 28542.79c27.58,167.54 97.46,239.44 207.16,267.5l8216.82 0c1723.85,-0.06 1995.87,-499.42 1994.79,-2340.66l-9.46 -3267.48c-56.1,-312.55 -80.99,-55.91 -122.98,-412.04l65.54 -15848.3c-0.4,-700.06 215.84,-1558.58 -401.24,-1657.35 -823.33,53.52 -714.04,617.37 -712.86,1389.8l3.56 14645.91c-0.04,1393.83 -24.61,2811.36 6.14,4202.37 59,2670.42 25.31,2325.15 -1704.38,2342.72 -1432.62,14.54 -4855.44,39.07 -6267.72,-35.84 -771.34,-40.93 -1161.31,-66.94 -1275.37,713.37z"/>
            <path class="fil1"
                  d="M15646.29 10521.47c1089.74,-298.16 1960.3,460.97 2169.89,1297.3 266.35,1062.84 -429.36,1959.96 -1275.54,2147.37 -2414.95,534.89 -3105.44,-2839.68 -894.35,-3444.67zm419.27 8662.85c-23.53,-412.31 -96.06,-430.66 -466.86,-533.88 -852.11,-237.23 -1074.31,70.57 -2507.61,-701.83 -90.69,-915.3 490.46,-1564.37 907.28,-1979.91 1835.33,-1829.65 5064.99,-503.53 5135.87,1959.99 -263.23,139.12 -615.76,303.25 -934.1,438.26 -479.35,203.3 -550.25,225.59 -470.16,818.23 627.18,579.7 1597.28,-198.75 2090.18,-536.05 214.29,-146.65 225.42,-67.03 286.41,-305.06 201.07,-784.72 -269.72,-2070.99 -847.76,-2751.06 -523.04,-615.36 -1196.95,-940.11 -1318.92,-1161.08 210.56,-434.83 1480.05,-1494.55 752.86,-3222.29 -1035.28,-2459.73 -4367.77,-2243.82 -5200.07,41.03 -208.72,572.93 -269.72,1276.77 -68.38,1883.58 223.52,673.62 707.27,892.19 838.3,1388.68 -1232.85,538.51 -2446.56,2425.09 -2238.16,3627.34 157.45,908.42 2167.47,1367.9 3032.63,1452.96 577.58,56.8 845.65,107.53 1008.49,-418.91z"/>
            <path class="fil2"
                  d="M16065.56 19184.32c299.24,-16.74 608.77,-13.23 904.44,-49.17 434.83,-52.85 453.09,-143.7 759.98,50.03 -80.09,-592.64 -9.19,-614.93 470.16,-818.23 318.34,-135.01 670.87,-299.14 934.1,-438.26 -70.88,-2463.52 -3300.54,-3789.64 -5135.87,-1959.99 -416.82,415.54 -997.97,1064.61 -907.28,1979.91 1433.3,772.4 1655.5,464.6 2507.61,701.83 370.8,103.22 443.33,121.57 466.86,533.88z"/>
            <path class="fil2"
                  d="M15646.29 10521.47c-2211.09,604.99 -1520.6,3979.56 894.35,3444.67 846.18,-187.41 1541.89,-1084.53 1275.54,-2147.37 -209.59,-836.33 -1080.15,-1595.46 -2169.89,-1297.3z"/>
            <path class="fil2"
                  d="M6379.06 14834.07c-38.94,-996.85 -249.68,-1002.3 -817.86,-1418.25 85.4,1138.67 -2074.98,469.55 -2518.78,708.01 -646.07,775.55 183.16,1006.1 1057.5,1023.81 2264.34,45.84 1219.31,-462.74 2279.14,-313.57z"/>
            <path class="fil2"
                  d="M5787.85 5511.91c-310.52,-113.76 -3571.4,-532.41 -2911.64,577.1 251.18,422.4 1334.09,270.75 1827.03,262.35 817.94,-13.91 1285.82,82.58 1084.61,-839.45z"/>
            <path class="fil2"
                  d="M2846.23 23515.98c434.23,266.69 1311.47,211.2 1923.99,225.09 318.36,7.23 728.63,38.9 918.58,-167.82 211.01,-229.65 126.76,-550.51 14.52,-735.1 -592.24,-137.34 -2158.84,-169.47 -2707.29,-12.78 -144.64,234.6 -241.41,316.36 -149.8,690.61z"/>
  </g>
 </g>
</svg>
