<?xml version="1.0" encoding="UTF-8"?>
<!DOCTYPE svg PUBLIC "-//W3C//DTD SVG 1.1//EN" "http://www.w3.org/Graphics/SVG/1.1/DTD/svg11.dtd">
<!-- Creator: CorelDRAW 2021.5 -->
<svg xmlns="http://www.w3.org/2000/svg" xml:space="preserve" width="1.9685in" height="1.9685in" version="1.1"
     style="shape-rendering:geometricPrecision; text-rendering:geometricPrecision; image-rendering:optimizeQuality; fill-rule:evenodd; clip-rule:evenodd"
     viewBox="0 0 1968.5 1968.5"
     xmlns:xlink="http://www.w3.org/1999/xlink"
     xmlns:xodm="http://www.corel.com/coreldraw/odm/2003">
 <defs>
  <style type="text/css">
   <![CDATA[
    .str0 {stroke:#373435;stroke-width:6.94;stroke-miterlimit:2.61313}
    .fil0 {fill:#2F2F2F}
    .fil2 {fill:#303030}
    .fil3 {fill:#313131}
    .fil1 {fill:#323232}
   ]]>
  </style>
 </defs>
    <g id="Camada_x0020_1">
  <metadata id="CorelCorpID_0Corel-Layer"/>
        <g id="_1875313027056">
   <path class="fil0 str0"
         d="M814.59 466.8c19.53,149.15 -23.53,109.96 35.22,125.61 26.74,-51.4 9.84,-156.26 10.67,-220.41l243.36 -0.52c-0.92,63.06 -16.89,171.13 9.86,220.73 41.84,-10.68 21.12,24.11 32.09,-49.02 2.67,-17.76 -0.46,-50.33 2.87,-76.78 209.43,-8.14 272.57,254.36 272.41,440.69 -85.2,1.95 -116.46,-25.54 -129.22,42.61 101.15,-0.07 114.86,-3.89 199.28,21.74l-0.36 108.57 -1014.8 -0.91 -6.03 -107.27c184.45,-45.93 424.57,-10.69 590.24,-20.32 76.19,-4.43 51.93,8.52 62.57,-34.34 -55.34,-26.01 -479.3,-7.68 -580.08,-10.27 -0.94,-187.22 63.87,-449.96 271.94,-440.08zm3.46 -48.39c-237.81,32.46 -320.21,234.48 -315.13,500.27 -50.08,16.22 -64.46,10.36 -74.52,67.26 -7.35,41.57 -2.19,95.46 11.93,132.03l1083.2 2.65c13.91,-38.98 19.11,-93.36 11.72,-134.7 -10.27,-57.48 -22.83,-49.71 -74.39,-67.11 4.78,-263.53 -77.43,-470.67 -316.19,-500 0.24,-57.62 9.45,-47.52 -17.08,-87.06l-291.67 -1.64c-26.77,40.9 -17.16,29.85 -17.88,88.3z"/>
            <path class="fil1 str0"
                  d="M638.18 1478.1l110.65 104.65c75.21,-24.2 22.69,-57.65 98.91,-42.73 44.59,8.72 29.48,17.63 45.1,67.93l12.53 34.02 152.78 1.25 22.5 -68.52c16.64,-39.87 -0.7,-16.6 47.08,-42.26 50.95,16.85 41.48,29.36 86.44,49.56l110.3 -104.89c-18.62,-78.32 -61.33,-44.43 -38.91,-108.49 22.65,-64.71 41.66,-23.46 102.15,-49.17 0.85,-91.29 31.54,-236.17 -103.36,-166.19 27.72,93.93 62.35,-55.98 61.39,125 -39.19,20.95 -31.16,-5.9 -69.52,22.43 -22.61,16.7 -27.78,54.19 -49.32,84.5 18.33,50.01 20.6,28.85 42.65,73.62l-59.25 66.44c-47.29,-15.35 -23.81,-12.37 -68.82,-43.34 -98.04,45 -107.13,10.86 -106.87,119.91l-87.58 -0.47 -17 -44.39c-16.79,-39.84 10.2,-6.91 -19.6,-34.67 -6.3,-5.87 -72.51,-32.56 -88.4,-40.18 -45.48,31.3 -20.15,27.59 -70.59,46.02l-60.87 -66.46c25.39,-45.79 28.18,-27.6 46.3,-76.81 -12.73,-17.7 -33.14,-68.29 -41.98,-76.74l-17.4 -11.77c-2.98,-1.7 -7.16,-2.69 -10.27,-4.18 -12.93,-6.22 -69.45,12.85 -49.33,-83.35 31.43,-71.07 37.65,29.26 60.83,-55.56 -142.16,-75.82 -111.2,136.26 -97.29,158.35 36.13,57.4 66.37,-27.33 96.59,56.9 22.78,63.49 -21.56,30.61 -39.85,109.58z"/>
            <path class="fil2 str0"
                  d="M1094.48 1150.19c-12.68,61.74 50.32,200.8 -106.93,207.58 -169.01,7.29 -105.36,-152.98 -120.43,-205.51 -12.98,3.81 -44.24,-8.24 -48.79,70.08 -9.91,170.57 204.69,245.64 301.46,103.39 25.78,-37.89 33.58,-107.36 18.64,-140.8 -30.27,-67.72 -3.78,-19.8 -43.94,-34.74z"/>
            <path class="fil3 str0"
                  d="M605.57 758.48c64.91,3.48 27.32,0.63 64.1,-62.7 40.5,-69.72 60.88,-24.15 53.45,-99.23 -63.57,17.95 -108.83,78.56 -117.55,161.93z"/>
  </g>
 </g>
</svg>
